<svg width="52" height="52" viewBox="0 0 52 52" fill="none" xmlns="http://www.w3.org/2000/svg">
<rect width="52" height="52" fill="white"/>
<path d="M12.5806 13.4195C11.1934 13.4195 10.0645 12.2906 10.0645 10.9033C10.0645 9.51611 11.1934 8.38721 12.5806 8.38721C13.9678 8.38721 15.0967 9.51611 15.0967 10.9033C15.0967 12.2906 13.9678 13.4195 12.5806 13.4195Z" fill="#41B7E9"/>
<path d="M46.1289 35.2259C44.7417 35.2259 43.6128 34.097 43.6128 32.7097C43.6128 31.3225 44.7417 30.1936 46.1289 30.1936C47.5161 30.1936 48.6451 31.3225 48.6451 32.7097C48.6451 34.097 47.5161 35.2259 46.1289 35.2259Z" fill="#41B7E9"/>
<path d="M35.2258 16.7741C31.5262 16.7741 28.5161 13.764 28.5161 10.0644C28.5161 6.36487 31.5262 3.35474 35.2258 3.35474C38.9253 3.35474 41.9355 6.36487 41.9355 10.0644C41.9355 13.764 38.9253 16.7741 35.2258 16.7741Z" fill="#41B7E9"/>
<path d="M31.0321 52C27.7947 52 25.1611 49.3656 25.1611 46.129C25.1611 42.8924 27.7947 40.2581 31.0321 40.2581C34.2695 40.2581 36.9031 42.8924 36.9031 46.129C36.9031 49.3656 34.2695 52 31.0321 52ZM31.0321 44.4516C30.107 44.4516 29.3547 45.2039 29.3547 46.129C29.3547 47.0541 30.107 47.8064 31.0321 47.8064C31.9572 47.8064 32.7095 47.0541 32.7095 46.129C32.7095 45.2039 31.9572 44.4516 31.0321 44.4516Z" fill="#41B7E9"/>
<path d="M10.9032 52C7.66578 52 5.03223 49.3656 5.03223 46.129C5.03223 42.8924 7.66578 40.2581 10.9032 40.2581C14.1406 40.2581 16.7742 42.8924 16.7742 46.129C16.7742 49.3656 14.1406 52 10.9032 52ZM10.9032 44.4516C9.9781 44.4516 9.22577 45.2039 9.22577 46.129C9.22577 47.0541 9.9781 47.8064 10.9032 47.8064C11.8283 47.8064 12.5806 47.0541 12.5806 46.129C12.5806 45.2039 11.8283 44.4516 10.9032 44.4516Z" fill="#41B7E9"/>
<path d="M16.7071 46.9678C16.6216 47.5599 16.4488 48.1235 16.1997 48.6452H25.7358C25.4867 48.1235 25.314 47.5599 25.2284 46.9678H16.7071Z" fill="#1F2428"/>
<path d="M46.9308 26.8999C46.9434 26.5997 46.9677 26.2994 46.9677 26C46.9677 22.1772 45.9244 18.4608 43.9652 15.2058C44.8232 13.6961 45.2903 11.9743 45.2903 10.2289V10.0645C45.2903 4.51477 40.7755 0 35.2258 0C31.5036 0 28.2536 2.03639 26.5125 5.04903C23.2608 4.97439 19.9596 5.668 17.0124 7.06445C15.9346 5.82232 14.3495 5.03226 12.5806 5.03226C9.34323 5.03226 6.70968 7.66664 6.70968 10.9032C6.70968 12.1663 7.12735 13.4168 7.88387 14.425L8.2311 14.8879C6.29284 17.9819 5.20755 21.5037 5.06329 25.1613H3.35484C2.42974 25.1613 1.67742 25.9136 1.67742 26.8387V43.6129C0.752322 43.6129 0 44.3652 0 45.2903V46.9677C0 47.8928 0.752322 48.6452 1.67742 48.6452H5.60677C5.35768 48.1235 5.1849 47.5599 5.09935 46.9677H1.67742V45.2903H5.09935C5.1849 44.6982 5.35768 44.1346 5.60677 43.6129H3.35484V26.8387H10.0645V33.228L14.2581 31.1312L18.4516 33.228V26.8387H25.1613V43.6129H16.1997C16.4488 44.1346 16.6215 44.6982 16.7071 45.2903H25.2284C25.3114 44.7116 25.4817 44.1631 25.7207 43.6515C26.0025 43.0493 26.3783 42.4983 26.8387 42.0277V31.871H34.7545C35.1394 31.871 35.4749 32.1326 35.568 32.5059L35.8288 33.5484H31.871C30.9459 33.5484 30.1935 34.3007 30.1935 35.2258V36.9032C30.1935 37.8283 30.9459 38.5806 31.871 38.5806H37.0869L38.345 43.6129H36.3287C36.5778 44.1346 36.7506 44.6982 36.8361 45.2903H38.5806V46.9677H36.8361C36.7506 47.5599 36.5778 48.1235 36.3287 48.6452H38.5806C39.5057 48.6452 40.2581 47.8928 40.2581 46.9677V44.6579C40.2581 44.4533 40.2329 44.2486 40.1834 44.0474L39.6466 41.9003C40.8963 40.8275 42.011 39.6181 42.9746 38.2879L46.129 42.4949L50.8258 36.2323C51.5832 35.2233 52 33.9719 52 32.7097C52 29.7457 49.7892 27.2933 46.9308 26.8999ZM35.2258 1.67742C39.8504 1.67742 43.6129 5.43987 43.6129 10.0645V10.2281C43.6129 12.0984 42.9763 13.9394 41.8206 15.4096L35.2258 23.8043L28.631 15.4096C27.4753 13.9394 26.8387 12.0992 26.8387 10.2281V10.0645C26.8387 5.43987 30.6012 1.67742 35.2258 1.67742ZM12.5806 6.70968C14.893 6.70968 16.7742 8.5909 16.7742 10.9032C16.7742 11.8048 16.4765 12.6989 15.9355 13.4185L12.5806 17.8922L9.22581 13.4185C8.68484 12.6989 8.3871 11.8048 8.3871 10.9032C8.3871 8.5909 10.2683 6.70968 12.5806 6.70968ZM16.7742 30.5139L14.2581 29.2559L11.7419 30.5139V26.8387H16.7742V30.5139ZM31.871 36.9032V35.2258H36.2482L36.6675 36.9032H31.871ZM39.1887 40.0694L37.1959 32.0991C36.915 30.9777 35.911 30.1935 34.7545 30.1935H26.8387V26.8387C26.8387 25.9136 26.0864 25.1613 25.1613 25.1613H6.73987C6.87406 22.0363 7.74968 19.0203 9.31219 16.3305L12.5806 20.6884L17.2774 14.4258C18.0348 13.4168 18.4516 12.1655 18.4516 10.9032C18.4516 10.0402 18.2595 9.22245 17.9232 8.48355C20.3806 7.34542 23.0058 6.75161 25.745 6.71723C25.3743 7.76645 25.1613 8.88948 25.1613 10.0645V10.2281C25.1613 12.4733 25.9254 14.6824 27.3117 16.4463L35.2258 26.5183L42.9168 16.7297C44.4709 19.5612 45.2903 22.7399 45.2903 26C45.2903 26.3028 45.2668 26.6072 45.2534 26.9117C42.4312 27.3369 40.2581 29.7708 40.2581 32.7097C40.2581 33.9728 40.6757 35.2233 41.4323 36.2314L41.9162 36.8772C41.1219 38.0372 40.2136 39.109 39.1887 40.0694ZM49.4839 35.225L46.129 39.6986L42.7742 35.225C42.2332 34.5054 41.9355 33.6113 41.9355 32.7097C41.9355 30.3974 43.8167 28.5161 46.129 28.5161C48.4414 28.5161 50.3226 30.3974 50.3226 32.7097C50.3226 33.6113 50.0248 34.5054 49.4839 35.225Z" fill="#1F2428"/>
<path d="M20.1289 21.8064H21.8063V23.4838H20.1289V21.8064Z" fill="#1F2428"/>
<path d="M23.4839 21.8064H25.1613V23.4838H23.4839V21.8064Z" fill="#1F2428"/>
<path d="M26.8389 21.8064H28.5163V23.4838H26.8389V21.8064Z" fill="#1F2428"/>
<path d="M31.0322 43.6128C29.645 43.6128 28.5161 44.7417 28.5161 46.1289C28.5161 47.5161 29.645 48.6451 31.0322 48.6451C32.4195 48.6451 33.5484 47.5161 33.5484 46.1289C33.5484 44.7417 32.4195 43.6128 31.0322 43.6128ZM31.0322 46.9676C30.5701 46.9676 30.1935 46.5919 30.1935 46.1289C30.1935 45.666 30.5701 45.2902 31.0322 45.2902C31.4944 45.2902 31.871 45.666 31.871 46.1289C31.871 46.5919 31.4944 46.9676 31.0322 46.9676Z" fill="#1F2428"/>
<path d="M10.9033 43.6128C9.51611 43.6128 8.38721 44.7417 8.38721 46.1289C8.38721 47.5161 9.51611 48.6451 10.9033 48.6451C12.2906 48.6451 13.4195 47.5161 13.4195 46.1289C13.4195 44.7417 12.2906 43.6128 10.9033 43.6128ZM10.9033 46.9676C10.4412 46.9676 10.0646 46.5919 10.0646 46.1289C10.0646 45.666 10.4412 45.2902 10.9033 45.2902C11.3655 45.2902 11.742 45.666 11.742 46.1289C11.742 46.5919 11.3655 46.9676 10.9033 46.9676Z" fill="#1F2428"/>
</svg>
