<svg width="16" height="16" viewBox="0 0 16 16" fill="none" xmlns="http://www.w3.org/2000/svg">
<circle cx="8" cy="8" r="8" fill="#C0C9D7"/>
<path d="M9.38011 10.6424L9.27309 11.0799C8.95202 11.2066 8.69555 11.303 8.50458 11.3694C8.31339 11.4359 8.09125 11.469 7.83814 11.469C7.44946 11.469 7.14714 11.3737 6.93151 11.1846C6.71589 10.9947 6.60804 10.7541 6.60804 10.4622C6.60804 10.3492 6.61587 10.233 6.63214 10.1146C6.64855 9.99605 6.67463 9.86253 6.71033 9.71329L7.11158 8.29311C7.14727 8.15712 7.17762 8.02827 7.20192 7.90642C7.22656 7.78532 7.23844 7.67391 7.23844 7.57361C7.23844 7.39224 7.20089 7.26538 7.12613 7.19406C7.05137 7.12294 6.90872 7.08683 6.69694 7.08683C6.59322 7.08683 6.48661 7.10344 6.37794 7.13557C6.26879 7.16783 6.1755 7.199 6.09717 7.22797L6.20446 6.79013C6.46732 6.68311 6.71857 6.59147 6.9589 6.51541C7.19924 6.43914 7.42633 6.40097 7.64112 6.40097C8.02713 6.40097 8.32499 6.49426 8.53416 6.68085C8.74333 6.86757 8.84788 7.10962 8.84788 7.4079C8.84788 7.46961 8.84102 7.57835 8.82626 7.73377C8.81184 7.88953 8.785 8.03225 8.74587 8.16206L8.34634 9.57655C8.3136 9.69016 8.28415 9.82004 8.25854 9.96619C8.23211 10.1114 8.21948 10.2223 8.21948 10.2967C8.21948 10.4846 8.26136 10.6128 8.34531 10.681C8.42989 10.7491 8.57556 10.783 8.78246 10.783C8.8796 10.783 8.99012 10.7658 9.11293 10.732C9.2354 10.6981 9.32471 10.6684 9.38011 10.6424ZM9.48143 4.70393C9.48143 4.95037 9.38855 5.16085 9.2019 5.33391C9.01573 5.50759 8.79139 5.5945 8.52895 5.5945C8.26568 5.5945 8.04079 5.50759 7.85249 5.33391C7.66453 5.16078 7.57035 4.95037 7.57035 4.70393C7.57035 4.45796 7.66453 4.24715 7.85249 4.07189C8.04045 3.89691 8.26575 3.80945 8.52895 3.80945C8.79132 3.80945 9.01573 3.89711 9.2019 4.07189C9.38869 4.24715 9.48143 4.45803 9.48143 4.70393Z" fill="#F2F6FC"/>
</svg>
